<?xml version="1.0" encoding="UTF-8" standalone="no"?>
<!DOCTYPE svg PUBLIC "-//W3C//DTD SVG 1.1//EN"
 "http://www.w3.org/Graphics/SVG/1.1/DTD/svg11.dtd">
<!-- Generated by graphviz version 11.0.0 (20240519.1550)
 -->
<!-- Title: snakemake_dag Pages: 1 -->
<svg width="108pt" height="476pt"
 viewBox="0.00 0.00 108.00 476.00" xmlns="http://www.w3.org/2000/svg" xmlns:xlink="http://www.w3.org/1999/xlink">
<g id="graph0" class="graph" transform="scale(1 1) rotate(0) translate(4 472)">
<title>snakemake_dag</title>
<polygon fill="white" stroke="none" points="-4,4 -4,-472 104,-472 104,4 -4,4"/>
<!-- 0 -->
<g id="node1" class="node">
<title>0</title>
<path fill="none" stroke="#d85656" stroke-width="2" stroke-dasharray="5,2" d="M65,-36C65,-36 35,-36 35,-36 29,-36 23,-30 23,-24 23,-24 23,-12 23,-12 23,-6 29,0 35,0 35,0 65,0 65,0 71,0 77,-6 77,-12 77,-12 77,-24 77,-24 77,-30 71,-36 65,-36"/>
<text text-anchor="middle" x="50" y="-15.62" font-family="sans" font-size="10.00">all</text>
</g>
<!-- 1 -->
<g id="node2" class="node">
<title>1</title>
<path fill="none" stroke="#56d8c9" stroke-width="2" stroke-dasharray="5,2" d="M88,-108C88,-108 12,-108 12,-108 6,-108 0,-102 0,-96 0,-96 0,-84 0,-84 0,-78 6,-72 12,-72 12,-72 88,-72 88,-72 94,-72 100,-78 100,-84 100,-84 100,-96 100,-96 100,-102 94,-108 88,-108"/>
<text text-anchor="middle" x="50" y="-87.62" font-family="sans" font-size="10.00">frank_postprocess</text>
</g>
<!-- 1&#45;&gt;0 -->
<g id="edge1" class="edge">
<title>1&#45;&gt;0</title>
<path fill="none" stroke="grey" stroke-width="2" d="M50,-71.34C50,-64.75 50,-57.08 50,-49.67"/>
<polygon fill="grey" stroke="grey" stroke-width="2" points="53.5,-49.93 50,-39.93 46.5,-49.93 53.5,-49.93"/>
</g>
<!-- 2 -->
<g id="node3" class="node">
<title>2</title>
<path fill="none" stroke="#78d856" stroke-width="2" stroke-dasharray="5,2" d="M81.62,-180C81.62,-180 18.38,-180 18.38,-180 12.38,-180 6.38,-174 6.38,-168 6.38,-168 6.38,-156 6.38,-156 6.38,-150 12.38,-144 18.38,-144 18.38,-144 81.62,-144 81.62,-144 87.62,-144 93.62,-150 93.62,-156 93.62,-156 93.62,-168 93.62,-168 93.62,-174 87.62,-180 81.62,-180"/>
<text text-anchor="middle" x="50" y="-159.62" font-family="sans" font-size="10.00">frank_dynamics</text>
</g>
<!-- 2&#45;&gt;1 -->
<g id="edge2" class="edge">
<title>2&#45;&gt;1</title>
<path fill="none" stroke="grey" stroke-width="2" d="M50,-143.34C50,-136.75 50,-129.08 50,-121.67"/>
<polygon fill="grey" stroke="grey" stroke-width="2" points="53.5,-121.93 50,-111.93 46.5,-121.93 53.5,-121.93"/>
</g>
<!-- 3 -->
<g id="node4" class="node">
<title>3</title>
<path fill="none" stroke="#c6d856" stroke-width="2" stroke-dasharray="5,2" d="M78.25,-252C78.25,-252 21.75,-252 21.75,-252 15.75,-252 9.75,-246 9.75,-240 9.75,-240 9.75,-228 9.75,-228 9.75,-222 15.75,-216 21.75,-216 21.75,-216 78.25,-216 78.25,-216 84.25,-216 90.25,-222 90.25,-228 90.25,-228 90.25,-240 90.25,-240 90.25,-246 84.25,-252 78.25,-252"/>
<text text-anchor="middle" x="50" y="-231.62" font-family="sans" font-size="10.00">frank_docking</text>
</g>
<!-- 3&#45;&gt;2 -->
<g id="edge3" class="edge">
<title>3&#45;&gt;2</title>
<path fill="none" stroke="grey" stroke-width="2" d="M50,-215.34C50,-208.75 50,-201.08 50,-193.67"/>
<polygon fill="grey" stroke="grey" stroke-width="2" points="53.5,-193.93 50,-183.93 46.5,-193.93 53.5,-193.93"/>
</g>
<!-- 4 -->
<g id="node5" class="node">
<title>4</title>
<path fill="none" stroke="#d8a456" stroke-width="2" stroke-dasharray="5,2" d="M80.12,-324C80.12,-324 19.88,-324 19.88,-324 13.88,-324 7.88,-318 7.88,-312 7.88,-312 7.88,-300 7.88,-300 7.88,-294 13.88,-288 19.88,-288 19.88,-288 80.12,-288 80.12,-288 86.12,-288 92.12,-294 92.12,-300 92.12,-300 92.12,-312 92.12,-312 92.12,-318 86.12,-324 80.12,-324"/>
<text text-anchor="middle" x="50" y="-303.62" font-family="sans" font-size="10.00">frank_diffusion</text>
</g>
<!-- 4&#45;&gt;3 -->
<g id="edge4" class="edge">
<title>4&#45;&gt;3</title>
<path fill="none" stroke="grey" stroke-width="2" d="M50,-287.34C50,-280.75 50,-273.08 50,-265.67"/>
<polygon fill="grey" stroke="grey" stroke-width="2" points="53.5,-265.93 50,-255.93 46.5,-265.93 53.5,-265.93"/>
</g>
<!-- 5 -->
<g id="node6" class="node">
<title>5</title>
<path fill="none" stroke="#56d87b" stroke-width="2" stroke-dasharray="5,2" d="M76.38,-396C76.38,-396 23.62,-396 23.62,-396 17.62,-396 11.62,-390 11.62,-384 11.62,-384 11.62,-372 11.62,-372 11.62,-366 17.62,-360 23.62,-360 23.62,-360 76.38,-360 76.38,-360 82.38,-360 88.38,-366 88.38,-372 88.38,-372 88.38,-384 88.38,-384 88.38,-390 82.38,-396 76.38,-396"/>
<text text-anchor="middle" x="50" y="-375.62" font-family="sans" font-size="10.00">frank_folding</text>
</g>
<!-- 5&#45;&gt;4 -->
<g id="edge5" class="edge">
<title>5&#45;&gt;4</title>
<path fill="none" stroke="grey" stroke-width="2" d="M50,-359.34C50,-352.75 50,-345.08 50,-337.67"/>
<polygon fill="grey" stroke="grey" stroke-width="2" points="53.5,-337.93 50,-327.93 46.5,-337.93 53.5,-337.93"/>
</g>
<!-- 6 -->
<g id="node7" class="node">
<title>6</title>
<path fill="none" stroke="#56a2d8" stroke-width="2" stroke-dasharray="5,2" d="M85.75,-468C85.75,-468 14.25,-468 14.25,-468 8.25,-468 2.25,-462 2.25,-456 2.25,-456 2.25,-444 2.25,-444 2.25,-438 8.25,-432 14.25,-432 14.25,-432 85.75,-432 85.75,-432 91.75,-432 97.75,-438 97.75,-444 97.75,-444 97.75,-456 97.75,-456 97.75,-462 91.75,-468 85.75,-468"/>
<text text-anchor="middle" x="50" y="-447.62" font-family="sans" font-size="10.00">frank_preprocess</text>
</g>
<!-- 6&#45;&gt;5 -->
<g id="edge6" class="edge">
<title>6&#45;&gt;5</title>
<path fill="none" stroke="grey" stroke-width="2" d="M50,-431.34C50,-424.75 50,-417.08 50,-409.67"/>
<polygon fill="grey" stroke="grey" stroke-width="2" points="53.5,-409.93 50,-399.93 46.5,-409.93 53.5,-409.93"/>
</g>
</g>
</svg>
