<svg width="2284" height="1323" xmlns="http://www.w3.org/2000/svg" xmlns:xlink="http://www.w3.org/1999/xlink" xml:space="preserve" overflow="hidden"><g transform="translate(-1312 -402)"><rect x="1315.5" y="1133.5" width="1059" height="108" stroke="#FFFFFF" stroke-width="6.875" stroke-miterlimit="8" fill="#005035"/><text fill="#FFFFFF" font-family="Aptos,Aptos_MSFontService,sans-serif" font-weight="400" font-size="55" transform="matrix(1 0 0 1 1578.69 1205)">Fv</text><text fill="#FFFFFF" font-family="Aptos,Aptos_MSFontService,sans-serif" font-weight="400" font-size="55" transform="matrix(1 0 0 1 1643.43 1205)">Sequence Diffusion</text><rect x="1315.5" y="1241.5" width="1059" height="109" stroke="#FFFFFF" stroke-width="6.875" stroke-miterlimit="8" fill="#A49665"/><text font-family="Aptos,Aptos_MSFontService,sans-serif" font-weight="400" font-size="55" transform="matrix(1 0 0 1 1759.93 1313)">EvoDiff</text><rect x="1315.5" y="1496.5" width="1059" height="108" stroke="#FFFFFF" stroke-width="6.875" stroke-miterlimit="8" fill="#005035"/><text fill="#FFFFFF" font-family="Aptos,Aptos_MSFontService,sans-serif" font-weight="400" font-size="55" transform="matrix(1 0 0 1 1606.64 1568)">Structure Prediction</text><rect x="1315.5" y="1604.5" width="1059" height="109" stroke="#FFFFFF" stroke-width="6.875" stroke-miterlimit="8" fill="#A49665"/><text font-family="Aptos,Aptos_MSFontService,sans-serif" font-weight="400" font-size="55" transform="matrix(1 0 0 1 1621.43 1677)">AlphaFold3 / ESM3</text><path d="M1851.87 1350 1851.88 1461.86 1838.13 1461.86 1838.12 1350ZM1865.63 1454.99 1845 1496.24 1824.38 1454.99Z" fill="#005035"/><rect x="2534.5" y="1133.5" width="1058" height="108" stroke="#FFFFFF" stroke-width="6.875" stroke-miterlimit="8" fill="#005035"/><text fill="#FFFFFF" font-family="Aptos,Aptos_MSFontService,sans-serif" font-weight="400" font-size="55" transform="matrix(1 0 0 1 2755.38 1205)">Antibody</text><text fill="#FFFFFF" font-family="Aptos,Aptos_MSFontService,sans-serif" font-weight="400" font-size="55" transform="matrix(1 0 0 1 2966.22 1205)">-</text><text fill="#FFFFFF" font-family="Aptos,Aptos_MSFontService,sans-serif" font-weight="400" font-size="55" transform="matrix(1 0 0 1 2985.12 1205)">Antigen Docking</text><rect x="2534.5" y="1239.5" width="1058" height="108" stroke="#FFFFFF" stroke-width="6.875" stroke-miterlimit="8" fill="#A49665"/><text font-family="Aptos,Aptos_MSFontService,sans-serif" font-weight="400" font-size="55" transform="matrix(1 0 0 1 2920.18 1311)">HADDOCK3</text><path d="M0-6.875 87.1045-6.875 87.1045 363.227 80.2295 356.352 126.084 356.352 126.084 370.102 73.3545 370.102 73.3545 0 80.2295 6.875 0 6.875ZM119.209 342.602 160.459 363.227 119.209 383.852Z" fill="#005035" transform="matrix(1 0 0 -1 2374 1550.23)"/><rect x="1315.5" y="768.5" width="1059" height="109" stroke="#FFFFFF" stroke-width="6.875" stroke-miterlimit="8" fill="#005035"/><text fill="#FFFFFF" font-family="Aptos,Aptos_MSFontService,sans-serif" font-weight="400" font-size="55" transform="matrix(1 0 0 1 1471.14 841)">Reference Sequence Alignment</text><rect x="1315.5" y="877.5" width="1059" height="108" stroke="#FFFFFF" stroke-width="6.875" stroke-miterlimit="8" fill="#A49665"/><text font-family="Aptos,Aptos_MSFontService,sans-serif" font-weight="400" font-size="55" transform="matrix(1 0 0 1 1740.83 949)">MUSCLE</text><path d="M1851.87 985 1851.88 1098 1838.13 1098 1838.12 985ZM1865.63 1091.13 1845 1132.38 1824.38 1091.13Z" fill="#005035"/><rect x="2534.5" y="1496.5" width="514" height="108" stroke="#FFFFFF" stroke-width="6.875" stroke-miterlimit="8" fill="#007377"/><text fill="#FFFFFF" font-family="Aptos,Aptos_MSFontService,sans-serif" font-weight="400" font-size="55" transform="matrix(1 0 0 1 2572.81 1568)">Report Generation</text><rect x="2534.5" y="1604.5" width="514" height="109" stroke="#FFFFFF" stroke-width="6.875" stroke-miterlimit="8" fill="#BFBFBF"/><text font-family="Aptos,Aptos_MSFontService,sans-serif" font-weight="400" font-size="55" transform="matrix(1 0 0 1 2626.03 1677)">Quarto .HTML</text><rect x="2534.5" y="767.5" width="1058" height="108" stroke="#FFFFFF" stroke-width="6.875" stroke-miterlimit="8" fill="#007377"/><text fill="#FFFFFF" font-family="Aptos,Aptos_MSFontService,sans-serif" font-weight="400" font-size="55" transform="matrix(1 0 0 1 2788.42 839)">Antigen Structure Input</text><rect x="2534.5" y="875.5" width="1058" height="109" stroke="#FFFFFF" stroke-width="6.875" stroke-miterlimit="8" fill="#BFBFBF"/><text font-family="Aptos,Aptos_MSFontService,sans-serif" font-weight="400" font-size="55" transform="matrix(1 0 0 1 2669.82 948)">Protein Data Bank / Custom .PDB</text><path d="M3069.88 984 3069.88 1098.37 3056.13 1098.37 3056.13 984ZM3083.63 1091.49 3063 1132.74 3042.38 1091.49Z" fill="#005035"/><rect x="3079.5" y="1497.5" width="513" height="108" stroke="#FFFFFF" stroke-width="6.875" stroke-miterlimit="8" fill="#007377"/><text fill="#FFFFFF" font-family="Aptos,Aptos_MSFontService,sans-serif" font-weight="400" font-size="55" transform="matrix(1 0 0 1 3131.88 1569)">Docked Complex</text><rect x="3079.5" y="1604.5" width="513" height="109" stroke="#FFFFFF" stroke-width="6.875" stroke-miterlimit="8" fill="#BFBFBF"/><text font-family="Aptos,Aptos_MSFontService,sans-serif" font-weight="400" font-size="55" transform="matrix(1 0 0 1 3276.33 1677)">.PDB</text><path d="M3070.1 1347 3070.1 1428.25 2791 1428.25 2797.87 1421.37 2797.87 1461.37 2784.12 1461.37 2784.12 1414.5 3063.22 1414.5 3056.35 1421.37 3056.35 1347ZM2811.62 1454.49 2791 1495.74 2770.37 1454.49Z" fill="#005035"/><path d="M0-6.875 81.793-6.875 81.793 272.224 74.918 265.349 115.461 265.349 115.461 279.099 68.043 279.099 68.043 0 74.918 6.875 0 6.875ZM108.586 251.599 149.836 272.224 108.586 292.849Z" fill="#005035" transform="matrix(1.83697e-16 1 1 -1.83697e-16 3063 1347)"/><rect x="1315.5" y="405.5" width="1059" height="108" stroke="#FFFFFF" stroke-width="6.875" stroke-miterlimit="8" fill="#007377"/><text fill="#FFFFFF" font-family="Aptos,Aptos_MSFontService,sans-serif" font-weight="400" font-size="55" transform="matrix(1 0 0 1 1468.84 477)">Reference Sequence Collection</text><rect x="1315.5" y="513.5" width="1059" height="108" stroke="#FFFFFF" stroke-width="6.875" stroke-miterlimit="8" fill="#BFBFBF"/><text font-family="Aptos,Aptos_MSFontService,sans-serif" font-weight="400" font-size="55" transform="matrix(1 0 0 1 1439.41 585)">Protein Data Bank / Thera</text><text font-family="Aptos,Aptos_MSFontService,sans-serif" font-weight="400" font-size="55" transform="matrix(1 0 0 1 2038.2 585)">-</text><text font-family="Aptos,Aptos_MSFontService,sans-serif" font-weight="400" font-size="55" transform="matrix(1 0 0 1 2057.24 585)">SAbDab</text><path d="M1851.87 621 1851.88 733.433 1838.13 733.433 1838.12 621ZM1865.63 726.558 1845 767.808 1824.38 726.558Z" fill="#005035"/></g></svg>